<svg xmlns="http://www.w3.org/2000/svg" width="256" height="256" viewBox="0 0 256 256" version="1.1"><path d="M 104.272 22.437 C 89.305 26.064, 74.316 38.133, 68.495 51.246 C 65.748 57.432, 65.168 58.081, 61.500 59.074 C 55.154 60.792, 44.927 66.760, 39.633 71.835 C 20.020 90.633, 16.957 119.235, 32.124 141.948 C 35.866 147.552, 36.049 148.160, 35.063 151.712 C 33.560 157.124, 33.775 171.567, 35.453 177.869 C 37.745 186.482, 41.808 193.721, 48.160 200.511 C 59.798 212.953, 72.470 218.327, 89.124 217.885 L 98.748 217.629 103.624 221.842 C 116.008 232.543, 134.118 237.232, 150.201 233.903 C 166.758 230.475, 183.295 216.775, 189.181 201.608 C 190.527 198.140, 191.303 197.526, 196.298 195.981 C 203.569 193.731, 210.263 189.762, 216.387 184.070 C 235.900 165.933, 239.023 136.735, 223.876 114.052 C 220.134 108.448, 219.951 107.840, 220.937 104.288 C 221.515 102.205, 221.986 96.675, 221.983 92 C 221.971 76.091, 217.477 65.325, 206.080 53.905 C 194.321 42.122, 183.037 37.633, 166.395 38.117 L 157.266 38.383 152.397 34.221 C 139.418 23.127, 120.520 18.500, 104.272 22.437 M 111.500 36.020 C 96.643 38.372, 86.679 45.907, 80.234 59.664 L 77.500 65.500 77.500 95.455 L 77.500 125.410 85.500 130.169 C 89.900 132.787, 93.838 134.944, 94.250 134.964 C 94.662 134.984, 95 121.300, 95 104.556 C 95 74.373, 95.019 74.091, 97.250 71.674 C 98.487 70.333, 108.725 63.960, 120 57.511 C 131.275 51.062, 140.889 45.423, 141.365 44.978 C 142.470 43.945, 135.688 39.644, 129.929 37.725 C 123.786 35.679, 117.392 35.087, 111.500 36.020 M 158.718 53.028 C 153.768 54.277, 152.332 55.026, 126.750 69.711 L 105 82.196 105 92.633 L 105 103.070 107.250 101.888 C 108.487 101.238, 120.334 94.472, 133.576 86.853 C 148.587 78.216, 158.691 73, 160.411 73 C 162.134 73, 171.196 77.691, 184.559 85.500 C 196.323 92.375, 206.410 98, 206.974 98 C 207.559 98, 208 95.467, 208 92.105 C 208 75.864, 197.475 60.669, 182 54.569 C 176.735 52.494, 164.139 51.660, 158.718 53.028 M 58.500 76.235 C 39.625 85.844, 31.605 109.568, 40.870 128.387 C 45.638 138.072, 52.193 143.348, 77.760 158.075 L 100.020 170.897 108.760 165.856 C 113.567 163.083, 117.634 160.685, 117.797 160.527 C 118.074 160.259, 108.413 154.547, 78 137 C 71.125 133.033, 65.050 129.048, 64.500 128.144 C 63.938 127.220, 63.281 115.053, 63 100.349 L 62.500 74.198 58.500 76.235 M 146.685 90.457 L 137.869 95.724 164.837 111.387 C 179.670 120.002, 192.074 127.750, 192.403 128.607 C 192.731 129.463, 193 141.827, 193 156.082 C 193 170.337, 193.338 181.996, 193.750 181.991 C 195.858 181.964, 205.066 175.669, 208.409 171.969 C 217.345 162.078, 221.209 146.110, 217.638 133.828 C 215.522 126.548, 209.217 117.209, 203.809 113.344 C 199.916 110.562, 156.153 84.869, 155.693 85.095 C 155.587 85.146, 151.533 87.559, 146.685 90.457 M 115.762 108.305 L 105.023 114.500 105.043 128 L 105.063 141.500 115.989 147.750 C 121.998 151.188, 127.456 154, 128.117 154 C 128.778 154, 134.194 151.188, 140.152 147.750 L 150.984 141.500 150.992 127.954 L 151 114.408 140.122 108.204 C 134.139 104.792, 128.626 102.025, 127.872 102.055 C 127.117 102.085, 121.668 104.898, 115.762 108.305 M 161 151.194 C 161 176.494, 160.751 181.910, 159.508 183.686 C 158.687 184.857, 148.108 191.544, 135.999 198.546 C 111.717 212.585, 112.156 212.051, 121.352 216.369 C 129.404 220.149, 136.554 221.269, 144.514 219.998 C 158.582 217.750, 169.367 209.780, 175.307 197.241 L 178.500 190.500 178.776 160.500 L 179.053 130.500 170.928 126 C 166.460 123.525, 162.398 121.350, 161.902 121.167 C 161.379 120.973, 161 133.581, 161 151.194 M 124.492 167.994 C 108.871 177.005, 97.438 182.990, 95.839 182.994 C 94.245 182.997, 84.486 177.983, 71.520 170.500 C 59.608 163.625, 49.379 158, 48.788 158 C 48.067 158, 47.894 160.625, 48.262 165.999 C 49.297 181.096, 57.282 193.065, 70.763 199.728 C 78 203.304, 78.893 203.499, 87.948 203.476 C 99.588 203.446, 99.642 203.423, 129.250 186.355 L 151 173.816 151 163.408 C 151 157.684, 150.884 153, 150.742 153 C 150.601 153, 138.788 159.747, 124.492 167.994" stroke="none" fill="#044c9c" fill-rule="evenodd"/><path d="M 111.500 36.020 C 96.643 38.372, 86.679 45.907, 80.234 59.664 L 77.500 65.500 77.500 95.455 L 77.500 125.410 85.500 130.169 C 89.900 132.787, 93.838 134.944, 94.250 134.964 C 94.662 134.984, 95 121.300, 95 104.556 C 95 74.373, 95.019 74.091, 97.250 71.674 C 98.487 70.333, 108.725 63.960, 120 57.511 C 131.275 51.062, 140.889 45.423, 141.365 44.978 C 142.470 43.945, 135.688 39.644, 129.929 37.725 C 123.786 35.679, 117.392 35.087, 111.500 36.020 M 158.718 53.028 C 153.768 54.277, 152.332 55.026, 126.750 69.711 L 105 82.196 105 92.633 L 105 103.070 107.250 101.888 C 108.487 101.238, 120.334 94.472, 133.576 86.853 C 148.587 78.216, 158.691 73, 160.411 73 C 162.134 73, 171.196 77.691, 184.559 85.500 C 196.323 92.375, 206.410 98, 206.974 98 C 207.559 98, 208 95.467, 208 92.105 C 208 75.864, 197.475 60.669, 182 54.569 C 176.735 52.494, 164.139 51.660, 158.718 53.028 M 58.500 76.235 C 39.625 85.844, 31.605 109.568, 40.870 128.387 C 45.638 138.072, 52.193 143.348, 77.760 158.075 L 100.020 170.897 108.760 165.856 C 113.567 163.083, 117.634 160.685, 117.797 160.527 C 118.074 160.259, 108.413 154.547, 78 137 C 71.125 133.033, 65.050 129.048, 64.500 128.144 C 63.938 127.220, 63.281 115.053, 63 100.349 L 62.500 74.198 58.500 76.235 M 146.685 90.457 L 137.869 95.724 164.837 111.387 C 179.670 120.002, 192.074 127.750, 192.403 128.607 C 192.731 129.463, 193 141.827, 193 156.082 C 193 170.337, 193.338 181.996, 193.750 181.991 C 195.858 181.964, 205.066 175.669, 208.409 171.969 C 217.345 162.078, 221.209 146.110, 217.638 133.828 C 215.522 126.548, 209.217 117.209, 203.809 113.344 C 199.916 110.562, 156.153 84.869, 155.693 85.095 C 155.587 85.146, 151.533 87.559, 146.685 90.457 M 115.762 108.305 L 105.023 114.500 105.043 128 L 105.063 141.500 115.989 147.750 C 121.998 151.188, 127.456 154, 128.117 154 C 128.778 154, 134.194 151.188, 140.152 147.750 L 150.984 141.500 150.992 127.954 L 151 114.408 140.122 108.204 C 134.139 104.792, 128.626 102.025, 127.872 102.055 C 127.117 102.085, 121.668 104.898, 115.762 108.305 M 161 151.194 C 161 176.494, 160.751 181.910, 159.508 183.686 C 158.687 184.857, 148.108 191.544, 135.999 198.546 C 111.717 212.585, 112.156 212.051, 121.352 216.369 C 129.404 220.149, 136.554 221.269, 144.514 219.998 C 158.582 217.750, 169.367 209.780, 175.307 197.241 L 178.500 190.500 178.776 160.500 L 179.053 130.500 170.928 126 C 166.460 123.525, 162.398 121.350, 161.902 121.167 C 161.379 120.973, 161 133.581, 161 151.194 M 124.492 167.994 C 108.871 177.005, 97.438 182.990, 95.839 182.994 C 94.245 182.997, 84.486 177.983, 71.520 170.500 C 59.608 163.625, 49.379 158, 48.788 158 C 48.067 158, 47.894 160.625, 48.262 165.999 C 49.297 181.096, 57.282 193.065, 70.763 199.728 C 78 203.304, 78.893 203.499, 87.948 203.476 C 99.588 203.446, 99.642 203.423, 129.250 186.355 L 151 173.816 151 163.408 C 151 157.684, 150.884 153, 150.742 153 C 150.601 153, 138.788 159.747, 124.492 167.994" stroke="none" fill="#04faeb" fill-rule="evenodd"/></svg>