<svg xmlns="http://www.w3.org/2000/svg" width="800" height="800" viewBox="0 0 800 800" version="1.1"><path d="M 138.948 265.433 C 121.233 269.132, 107.114 280.016, 98.649 296.500 C 93.361 306.796, 93.051 309.931, 92.925 354.381 L 92.808 395.500 105.654 403.237 L 118.500 410.975 119 365.737 C 119.376 331.743, 119.816 319.947, 120.772 318.275 C 122.044 316.050, 127.016 312.997, 166.750 290.047 C 178.438 283.296, 188 277.407, 188 276.959 C 188 275.629, 176.424 269, 170.237 266.787 C 162.942 264.178, 148.046 263.533, 138.948 265.433 M 212.044 290.062 C 203.682 292.251, 201.297 293.546, 136.756 330.912 L 134.013 332.500 134.006 347.750 C 134.003 356.137, 134.264 363, 134.587 363 C 135.126 363, 161.552 347.873, 196.716 327.436 C 204.536 322.892, 212.206 318.894, 213.761 318.552 C 217.196 317.798, 218.954 318.705, 255.621 340.143 C 270.537 348.864, 283.189 356, 283.735 356 C 285.420 356, 286.025 347.323, 284.903 339.217 C 282.284 320.276, 269.542 302.583, 252.465 294.174 C 240.037 288.054, 225.401 286.565, 212.044 290.062 M 65.399 323.590 C 58.596 327.186, 50.977 333.200, 47.080 338.051 C 43.327 342.720, 37 354.616, 37 357.002 C 37 357.881, 36.438 359.162, 35.750 359.850 C 33.638 361.961, 34.068 387.315, 36.320 393.492 C 42.766 411.170, 50.363 419.004, 74.692 433.064 C 84.486 438.724, 98.800 447.039, 106.500 451.541 C 114.200 456.043, 121.932 460.459, 123.683 461.354 L 126.865 462.982 139.973 455.365 C 147.183 451.176, 152.872 447.538, 152.615 447.282 C 152.083 446.750, 142.938 441.425, 103.648 418.772 C 82.699 406.693, 75.327 401.944, 73.902 399.607 C 72.131 396.703, 72.007 394.036, 72.004 358.750 C 72.002 337.988, 71.617 321, 71.149 321 C 70.681 321, 68.093 322.165, 65.399 323.590 M 195.793 344.318 C 188.804 348.268, 183.209 351.927, 183.359 352.448 C 183.509 352.970, 189.227 356.616, 196.066 360.551 C 256.891 395.550, 260.483 397.753, 262.248 401.142 C 263.822 404.163, 263.997 408.235, 263.998 441.750 C 264 471.918, 264.251 479, 265.319 479 C 267.979 479, 279.235 471.319, 285.114 465.492 C 298.363 452.358, 304.804 429.730, 300.440 411.647 C 295.880 392.754, 285.445 380.577, 262.966 367.916 C 255.560 363.744, 240.414 355.082, 229.309 348.666 C 218.203 342.250, 208.978 337.031, 208.809 337.068 C 208.639 337.106, 202.782 340.369, 195.793 344.318 M 150.500 370.540 L 134.500 379.885 134.230 399.810 L 133.959 419.736 150.946 429.411 L 167.932 439.086 184.966 429.403 L 202 419.720 202 399.999 L 202 380.278 185.091 370.639 C 175.791 365.338, 167.804 361.044, 167.341 361.097 C 166.878 361.151, 159.300 365.400, 150.500 370.540 M 216 434.423 L 216 479.847 213.560 482.747 C 212.217 484.342, 204.005 489.726, 195.310 494.712 C 167.303 510.770, 147.510 522.216, 147.108 522.588 C 145.486 524.088, 160.814 532.131, 169.644 534.413 C 184.148 538.160, 203.320 534.974, 216.321 526.657 C 223.490 522.071, 233.019 511.373, 236.668 503.812 C 242.734 491.245, 243.087 487.773, 242.779 443.686 L 242.500 403.872 229.623 396.436 C 222.540 392.346, 216.578 389, 216.373 389 C 216.168 389, 216 409.440, 216 434.423 M 188.949 443.611 C 127.895 478.864, 123.968 481, 120.226 481 C 116.400 481, 116.253 480.921, 67.705 452.764 C 60.118 448.363, 53.143 444.704, 52.205 444.631 C 50.779 444.522, 50.451 445.610, 50.204 451.274 C 49.624 464.539, 53.208 475.927, 61.566 487.371 C 70.514 499.623, 82.567 507.464, 97.179 510.538 C 110.184 513.273, 122.922 511.565, 135 505.465 C 140.358 502.758, 181.752 479.083, 197.750 469.575 L 202 467.049 202 452.025 C 202 443.761, 201.639 437, 201.199 437 C 200.758 437, 195.246 439.975, 188.949 443.611" stroke="none" fill="#04f9eb" fill-rule="evenodd"/><path d="M 133.569 244.086 C 123.206 246.907, 118.239 248.964, 110.436 253.667 C 96.669 261.963, 84.150 275.990, 78.006 290 C 74.741 297.446, 74.536 297.659, 69.937 298.394 C 67.724 298.748, 65.145 299.451, 64.206 299.956 C 63.268 300.461, 60.250 301.912, 57.500 303.180 C 43.110 309.816, 28.820 323.811, 21.738 338.203 C 15.528 350.823, 14.239 354.906, 12.934 366.095 C 10.394 387.864, 16.935 410.702, 29.858 425.189 C 31.706 427.260, 32.102 428.523, 31.583 430.689 C 29.252 440.408, 28.846 444.869, 29.232 456.500 C 29.695 470.466, 30.894 475.655, 36.281 487 C 43.957 503.167, 58.791 518.300, 73.500 524.971 C 76.250 526.218, 79.245 527.612, 80.156 528.069 C 81.067 528.526, 85.792 529.870, 90.656 531.055 C 98.110 532.872, 101.580 533.143, 112.738 532.778 C 125.784 532.352, 126.009 532.382, 128.238 534.810 C 133.500 540.541, 146.057 548.723, 155.208 552.381 C 170.332 558.426, 198.289 558.768, 211.500 553.068 C 227.381 546.217, 237.869 538.570, 246.901 527.255 C 251.208 521.859, 257.571 510.377, 259.385 504.727 C 259.698 503.752, 260.527 502.787, 261.227 502.583 C 286.466 495.217, 303.300 482.185, 313.653 461.999 C 318.280 452.977, 319.206 450.579, 321.567 441.500 C 324.711 429.415, 323.489 408.663, 319.036 398.500 C 314.313 387.721, 312.663 384.574, 308.550 378.500 L 303.810 371.500 305.069 365 C 310.723 335.796, 302.388 308.696, 281.609 288.729 C 271.397 278.916, 259.997 272.741, 245.033 268.917 C 237.826 267.076, 234.604 266.820, 223.385 267.201 L 210.204 267.648 205.352 263.283 C 199.146 257.700, 191.840 252.838, 185.500 250.072 C 182.750 248.872, 179.600 247.488, 178.500 246.996 C 167.053 241.874, 146.567 240.547, 133.569 244.086 M 138.948 265.433 C 121.233 269.132, 107.114 280.016, 98.649 296.500 C 93.361 306.796, 93.051 309.931, 92.925 354.381 L 92.808 395.500 105.654 403.237 L 118.500 410.975 119 365.737 C 119.376 331.743, 119.816 319.947, 120.772 318.275 C 122.044 316.050, 127.016 312.997, 166.750 290.047 C 178.438 283.296, 188 277.407, 188 276.959 C 188 275.629, 176.424 269, 170.237 266.787 C 162.942 264.178, 148.046 263.533, 138.948 265.433 M 212.044 290.062 C 203.682 292.251, 201.297 293.546, 136.756 330.912 L 134.013 332.500 134.006 347.750 C 134.003 356.137, 134.264 363, 134.587 363 C 135.126 363, 161.552 347.873, 196.716 327.436 C 204.536 322.892, 212.206 318.894, 213.761 318.552 C 217.196 317.798, 218.954 318.705, 255.621 340.143 C 270.537 348.864, 283.189 356, 283.735 356 C 285.420 356, 286.025 347.323, 284.903 339.217 C 282.284 320.276, 269.542 302.583, 252.465 294.174 C 240.037 288.054, 225.401 286.565, 212.044 290.062 M 65.399 323.590 C 58.596 327.186, 50.977 333.200, 47.080 338.051 C 43.327 342.720, 37 354.616, 37 357.002 C 37 357.881, 36.438 359.162, 35.750 359.850 C 33.638 361.961, 34.068 387.315, 36.320 393.492 C 42.766 411.170, 50.363 419.004, 74.692 433.064 C 84.486 438.724, 98.800 447.039, 106.500 451.541 C 114.200 456.043, 121.932 460.459, 123.683 461.354 L 126.865 462.982 139.973 455.365 C 147.183 451.176, 152.872 447.538, 152.615 447.282 C 152.083 446.750, 142.938 441.425, 103.648 418.772 C 82.699 406.693, 75.327 401.944, 73.902 399.607 C 72.131 396.703, 72.007 394.036, 72.004 358.750 C 72.002 337.988, 71.617 321, 71.149 321 C 70.681 321, 68.093 322.165, 65.399 323.590 M 195.793 344.318 C 188.804 348.268, 183.209 351.927, 183.359 352.448 C 183.509 352.970, 189.227 356.616, 196.066 360.551 C 256.891 395.550, 260.483 397.753, 262.248 401.142 C 263.822 404.163, 263.997 408.235, 263.998 441.750 C 264 471.918, 264.251 479, 265.319 479 C 267.979 479, 279.235 471.319, 285.114 465.492 C 298.363 452.358, 304.804 429.730, 300.440 411.647 C 295.880 392.754, 285.445 380.577, 262.966 367.916 C 255.560 363.744, 240.414 355.082, 229.309 348.666 C 218.203 342.250, 208.978 337.031, 208.809 337.068 C 208.639 337.106, 202.782 340.369, 195.793 344.318 M 490 363.452 C 490 372.004, 489.872 379, 489.715 379 C 489.559 379, 486.746 378.052, 483.465 376.894 C 475.738 374.166, 464.558 374.583, 457.808 377.851 C 443.613 384.723, 435.935 402.623, 438.787 422.195 C 440.086 431.105, 443.698 439.989, 447.807 444.376 C 456.778 453.958, 474.801 454.491, 486.559 445.523 L 490 442.898 490 446.449 L 490 450 496.509 450 L 503.018 450 502.759 399.250 L 502.500 348.500 496.250 348.202 L 490 347.905 490 363.452 M 740 356.500 L 740 362 746.500 362 L 753 362 753 400 L 753 438 746.500 438 L 740 438 740 443 L 740 448 759.500 448 L 779 448 779 443 L 779 438 773.158 438 L 767.316 438 766.658 419.840 C 766.296 409.852, 766 392.527, 766 381.340 L 766 361 772.500 361 L 779 361 779 356 L 779 351 759.500 351 L 740 351 740 356.500 M 677.476 353.250 C 677.222 353.938, 669.417 375.781, 660.130 401.791 L 643.246 449.083 650.287 448.791 L 657.329 448.500 661.914 435.257 L 666.500 422.015 687.015 422.007 L 707.531 422 709.385 427.250 C 710.405 430.137, 712.578 436.212, 714.214 440.750 L 717.189 449 724.095 449 C 727.893 449, 731 448.587, 731 448.081 C 731 447.576, 723.125 425.914, 713.500 399.943 C 703.875 373.972, 696 352.561, 696 352.362 C 696 352.163, 691.936 352, 686.969 352 C 680.656 352, 677.798 352.376, 677.476 353.250 M 376.476 354.250 C 376.222 354.938, 368.417 376.781, 359.130 402.791 L 342.246 450.083 349.287 449.791 L 356.329 449.500 360.914 436.257 L 365.500 423.015 386.015 423.007 L 406.531 423 408.385 428.250 C 409.405 431.137, 411.578 437.212, 413.214 441.750 L 416.189 450 423.095 450 C 426.893 450, 430 449.587, 430 449.081 C 430 448.576, 422.125 426.914, 412.500 400.943 C 402.875 374.972, 395 353.561, 395 353.362 C 395 353.163, 390.936 353, 385.969 353 C 379.656 353, 376.798 353.376, 376.476 354.250 M 150.500 370.540 L 134.500 379.885 134.230 399.810 L 133.959 419.736 150.946 429.411 L 167.932 439.086 184.966 429.403 L 202 419.720 202 399.999 L 202 380.278 185.091 370.639 C 175.791 365.338, 167.804 361.044, 167.341 361.097 C 166.878 361.151, 159.300 365.400, 150.500 370.540 M 679.085 386.333 C 675.008 397.975, 671.472 408.063, 671.229 408.750 C 670.886 409.717, 674.459 410, 687 410 C 702.038 410, 703.164 409.873, 702.525 408.250 C 702.146 407.288, 698.486 397.301, 694.392 386.057 C 690.298 374.814, 686.847 365.514, 686.723 365.390 C 686.600 365.267, 683.163 374.691, 679.085 386.333 M 378.085 387.333 C 374.008 398.975, 370.472 409.063, 370.229 409.750 C 369.886 410.717, 373.459 411, 386 411 C 401.038 411, 402.164 410.873, 401.525 409.250 C 401.146 408.288, 397.486 398.301, 393.392 387.057 C 389.298 375.814, 385.847 366.514, 385.723 366.390 C 385.600 366.267, 382.163 375.691, 378.085 387.333 M 544.324 375.381 C 531.649 379.521, 524.193 389.155, 521.813 404.467 C 518.588 425.210, 527.026 443.095, 542.853 449.063 C 550.846 452.076, 563.316 451.476, 570.623 447.724 C 581.227 442.282, 587.563 431.473, 588.686 416.914 C 590.152 397.902, 582.815 382.824, 569.122 376.711 C 563.307 374.115, 550.332 373.419, 544.324 375.381 M 551 385.989 C 539.599 388.117, 534.968 395.756, 534.931 412.500 C 534.891 430.191, 541.728 439.327, 555 439.320 C 566.343 439.313, 572.876 432.859, 574.993 419.566 C 576.376 410.883, 574.914 400.235, 571.552 394.498 C 567.730 387.976, 559.225 384.455, 551 385.989 M 465.315 388.043 C 461.650 389.171, 456.696 393.795, 454.267 398.356 C 451.752 403.076, 451.254 421.238, 453.457 427.871 C 457.545 440.180, 469.324 443.248, 483.500 435.696 L 489.500 432.500 489.770 411.708 L 490.041 390.915 486.270 389.314 C 481.762 387.399, 469.768 386.671, 465.315 388.043 M 216 434.423 L 216 479.847 213.560 482.747 C 212.217 484.342, 204.005 489.726, 195.310 494.712 C 167.303 510.770, 147.510 522.216, 147.108 522.588 C 145.486 524.088, 160.814 532.131, 169.644 534.413 C 184.148 538.160, 203.320 534.974, 216.321 526.657 C 223.490 522.071, 233.019 511.373, 236.668 503.812 C 242.734 491.245, 243.087 487.773, 242.779 443.686 L 242.500 403.872 229.623 396.436 C 222.540 392.346, 216.578 389, 216.373 389 C 216.168 389, 216 409.440, 216 434.423 M 188.949 443.611 C 127.895 478.864, 123.968 481, 120.226 481 C 116.400 481, 116.253 480.921, 67.705 452.764 C 60.118 448.363, 53.143 444.704, 52.205 444.631 C 50.779 444.522, 50.451 445.610, 50.204 451.274 C 49.624 464.539, 53.208 475.927, 61.566 487.371 C 70.514 499.623, 82.567 507.464, 97.179 510.538 C 110.184 513.273, 122.922 511.565, 135 505.465 C 140.358 502.758, 181.752 479.083, 197.750 469.575 L 202 467.049 202 452.025 C 202 443.761, 201.639 437, 201.199 437 C 200.758 437, 195.246 439.975, 188.949 443.611" stroke="none" fill="#044c9b" fill-rule="evenodd"/></svg>